<svg width="23" height="17" viewBox="0 0 23 17" fill="none" xmlns="http://www.w3.org/2000/svg">
<path d="M13.7925 14.6617C13.3007 15.1535 13.3007 15.9509 13.7925 16.4427C14.2843 16.9345 15.0816 16.9345 15.5734 16.4427L22.2898 9.72626C22.5357 9.48036 22.6587 9.15807 22.6587 8.83578C22.6587 8.66503 22.6247 8.50221 22.5631 8.35373C22.5017 8.2052 22.4106 8.06604 22.2898 7.9453L15.5734 1.22888C15.0816 0.737082 14.2843 0.737082 13.7925 1.22888C13.3007 1.72068 13.3007 2.51804 13.7925 3.00984L18.3591 7.57645L2.08966 7.57645C1.39416 7.57645 0.830334 8.14027 0.830334 8.83578C0.830334 9.53129 1.39416 10.0951 2.08966 10.0951L18.3591 10.0951L13.7925 14.6617Z" fill="#565654"/>
</svg>
