<svg width="23" height="17" viewBox="0 0 23 17" fill="none" xmlns="http://www.w3.org/2000/svg">
<path d="M9.20753 2.33828C9.69933 1.84649 9.69933 1.04912 9.20753 0.557325C8.71574 0.065527 7.91837 0.065527 7.42658 0.557325L0.710157 7.27374C0.464258 7.51964 0.341309 7.84193 0.341309 8.16422C0.341309 8.33497 0.375292 8.49779 0.436865 8.64627C0.49832 8.7948 0.589417 8.93396 0.710157 9.0547L7.42658 15.7711C7.91837 16.2629 8.71574 16.2629 9.20753 15.7711C9.69933 15.2793 9.69933 14.482 9.20753 13.9902L4.64092 9.42355H20.9103C21.6058 9.42355 22.1697 8.85973 22.1697 8.16422C22.1697 7.46871 21.6058 6.90489 20.9103 6.90489H4.64092L9.20753 2.33828Z" fill="#565654"/>
</svg>
